# xmcd
#
# Track frame offsets:
#	150
#	22166
#	47979
#	70008
#	106125
#
# Disc length: 1569 seconds
#
# Revision: 1
# Processed by: cddbd v1.5.2PL0 Copyright (c) Steve Scherf et al.
# Submitted via: EasyCDDAExtractor 5.0.6
#
DISCID=3e061f05
DTITLE=Seaplane - Twisted Hero EP
DYEAR=2002
DGENRE=Indie Rock
TTITLE0=Rolling
TTITLE1=Nation Of Spies
TTITLE2=Burnt Sprinkler
TTITLE3=Beanbag
TTITLE4=Twisted Hero
EXTD=
EXTT0=
EXTT1=
EXTT2=
EXTT3=
EXTT4=
PLAYORDER=
